<svg width="584" height="530" viewBox="0 0 584 530" fill="none" xmlns="http://www.w3.org/2000/svg">
<g clip-path="url(#clip0_12_48)">
<path d="M280.24 106.125C286.731 99.5198 295.4 97.5146 299.604 101.646C303.807 105.778 301.951 114.48 295.457 121.087C292.899 123.762 289.738 125.786 286.238 126.988L258.382 154.629L245.689 141.281L274.498 115.449C275.64 111.927 277.609 108.73 280.24 106.125Z" fill="#FFB6B6"/>
<path d="M191.153 83.3095L220.36 148.102L266.997 122.857L283.688 131.715C283.688 131.715 245.563 195.454 219.458 188.198C193.354 180.943 146.999 115.152 155.351 94.8465C163.703 74.5414 191.153 83.3095 191.153 83.3095Z" fill="#E6E6E6"/>
<path d="M326.54 119.883C319.76 113.575 317.519 104.963 321.535 100.648C325.55 96.3343 334.3 97.9517 341.082 104.263C343.825 106.747 345.934 109.852 347.232 113.319L375.622 140.411L362.624 153.462L336.017 125.369C332.465 124.323 329.216 122.442 326.54 119.883Z" fill="#A0616A"/>
<path d="M469.546 124.059L414.748 182.4C414.748 182.4 402.442 194.576 382.196 177.017C361.95 159.458 339.441 130.651 339.441 130.651L352.069 116.907L374.437 136.863C374.437 136.863 387.717 142.206 388.64 145.664C389.563 149.121 386.982 150.552 391.131 149.444C395.28 148.336 395.361 145.864 395.621 149.613C395.881 153.361 393.347 157.742 398.14 153.498C402.934 149.255 404.364 151.837 404.364 151.837L439.387 105.443C439.387 105.443 462.019 87.547 468.525 103.589C475.031 119.631 469.546 124.059 469.546 124.059Z" fill="#235970"/>
<path d="M178.346 515.124L199.642 515.122L209.773 432.979L178.342 432.981L178.346 515.124Z" fill="#FFB6B6"/>
<path d="M251.309 514.641C251.973 515.758 252.322 519.362 252.322 520.661C252.322 524.652 249.086 527.889 245.094 527.889H179.143C176.42 527.889 174.212 525.681 174.212 522.958V520.212C174.212 520.212 170.95 511.959 177.667 501.788C177.667 501.788 186.015 509.752 198.489 497.278L202.168 490.614L228.796 510.088L243.556 511.905C246.785 512.302 249.648 511.843 251.309 514.641Z" fill="#2F2E41"/>
<path d="M423.793 136.057H476.569V58.0738H423.793V136.057Z" fill="#2F2E41"/>
<path d="M464.723 112.278L462.874 89.9429H438.299L432.852 113.607L464.723 112.278Z" fill="#A0616A"/>
<path opacity="0.1" d="M464.723 112.278L462.874 89.9429H438.299L432.852 113.607L464.723 112.278Z" fill="black"/>
<path d="M194.462 87.4674L194.893 58.744L177.18 47.7024L157.919 71.2623L194.462 87.4674Z" fill="#FFB6B6"/>
<path opacity="0.1" d="M194.461 87.4674L195.607 59.4597L177.179 47.7024L183.44 82.3632L194.461 87.4674Z" fill="black"/>
<path d="M446.717 97.0497C461.553 97.0497 473.58 85.0229 473.58 70.1871C473.58 55.3513 461.553 43.3245 446.717 43.3245C431.881 43.3245 419.854 55.3513 419.854 70.1871C419.854 85.0229 431.881 97.0497 446.717 97.0497Z" fill="#A0616A"/>
<path d="M439.94 41.9259C439.94 41.9259 439.94 30.898 450.181 33.2612C460.421 35.6243 463.572 39.5628 463.572 39.5628C463.572 39.5628 467.51 45.8644 473.812 46.6522C480.113 47.4399 485.627 65.5571 484.84 69.4956C484.052 73.4341 480.113 83.6743 485.627 88.4005C491.141 93.1268 499.018 100.216 496.655 107.305C494.292 114.395 487.203 132.512 487.203 132.512C487.203 132.512 506.976 135.402 505.36 147.742C505.36 147.742 495.868 140.389 483.264 140.389C470.661 140.389 472.236 117.524 472.236 117.524C472.236 117.524 471.449 103.367 469.086 99.4284C466.722 95.4899 469.873 73.4341 458.058 61.6186C446.242 49.803 439.94 41.9259 439.94 41.9259Z" fill="#2F2E41"/>
<path d="M443.092 39.5628C443.092 39.5628 428.125 42.7136 422.611 57.68C417.097 72.6464 419.882 75.4313 419.882 75.4313C419.882 75.4313 418.663 84.4434 411.972 87.6035C405.282 90.7636 410.796 104.155 410.796 104.155C410.796 104.155 409.22 117.546 387.952 122.272C366.684 126.998 414.623 163.241 414.623 163.241C414.623 163.241 411.176 146.136 433.232 145.348C455.288 144.56 428.913 104.155 428.913 104.155L426.55 78.1603C426.55 78.1603 431.276 48.2275 445.455 44.289C459.633 40.3504 443.092 39.5628 443.092 39.5628Z" fill="#2F2E41"/>
<path d="M194.516 67.6819C211.914 67.6819 226.018 53.5782 226.018 36.1803C226.018 18.7825 211.914 4.67871 194.516 4.67871C177.118 4.67871 163.015 18.7825 163.015 36.1803C163.015 53.5782 177.118 67.6819 194.516 67.6819Z" fill="#FFB6B6"/>
<path d="M237.478 277.401L208.133 477.091H171.316L176.211 363.103L178.788 303.167L171.316 274.638C171.316 274.638 167.909 268.297 165.039 260.61C161.804 251.935 159.248 241.535 163.042 236.604C164.437 234.786 168.066 233.44 172.998 232.438C176.011 231.823 179.518 231.343 183.304 230.971C205.077 228.817 236.047 230.162 236.047 230.162L236.834 256.144L237.271 270.652L237.478 277.401Z" fill="#2F2E41"/>
<path d="M57.0938 483.308L75.8546 493.385L123.656 425.82L95.9668 410.946L57.0938 483.308Z" fill="#FFB6B6"/>
<path d="M121.597 517.415C121.652 518.712 120.254 522.053 119.64 523.197C117.75 526.714 113.368 528.033 109.852 526.143L51.7544 494.93C49.3555 493.641 48.4555 490.651 49.7444 488.252L51.044 485.834C51.044 485.834 52.0757 477.02 62.8068 471.239C62.8068 471.239 66.3915 482.206 83.2845 477.121L89.6791 472.991L103.919 502.749L116.061 511.335C118.718 513.214 121.457 514.164 121.597 517.415Z" fill="#2F2E41"/>
<path d="M237.271 270.651L221.697 301.879L176.212 363.103L101.331 463.9L68.9014 446.479L157.796 296.804L164.724 268.132C164.724 268.132 164.724 265.033 165.039 260.61C165.654 251.856 167.501 237.907 172.998 232.438C173.742 231.694 174.551 231.107 175.431 230.713C177.085 229.969 179.833 230.148 183.304 230.971C197.805 234.435 224.867 249.315 236.834 256.144L237.271 270.651Z" fill="#2F2E41"/>
<path d="M462.721 517.629L444.411 517.627L435.7 447L462.725 447.002L462.721 517.629Z" fill="#A0616A"/>
<path d="M399.987 517.214C399.417 518.174 399.116 521.273 399.116 522.39C399.116 525.822 401.899 528.604 405.331 528.604H462.037C464.378 528.604 466.276 526.706 466.276 524.365V522.004C466.276 522.004 469.082 514.908 463.306 506.163C463.306 506.163 456.128 513.011 445.402 502.285L442.239 496.555L419.344 513.299L406.654 514.861C403.877 515.203 401.415 514.808 399.987 517.214Z" fill="#2F2E41"/>
<path d="M534.854 496.051L517.927 503.034L482.935 441.069L507.917 430.762L534.854 496.051Z" fill="#A0616A"/>
<path d="M476.704 519.597C476.544 520.702 477.448 523.681 477.874 524.713C479.183 527.886 482.816 529.397 485.989 528.088L538.407 506.457C540.572 505.564 541.602 503.086 540.709 500.921L539.809 498.739C539.809 498.739 539.695 491.11 531.021 485.228C531.021 485.228 526.997 494.297 512.991 488.473L507.882 484.383L493.105 508.595L481.97 514.879C479.533 516.254 477.107 516.828 476.704 519.597Z" fill="#2F2E41"/>
<path d="M471.123 275.354L463.65 303.883L465.64 350.177L468.94 427.068L469.033 429.237L469.405 437.883L471.122 477.807H434.305L417.915 366.274L404.96 278.117L406.32 233.226L406.391 230.878C406.391 230.878 472.239 228.015 479.396 237.32C486.554 246.624 471.123 275.354 471.123 275.354Z" fill="#2F2E41"/>
<path d="M522.348 449.106L516.106 452.334L493.024 464.279L489.646 466.026L469.405 437.883L417.915 366.274L404.96 278.117L406.32 233.226C412.146 231.372 416.805 230.613 419.167 231.715C429.803 236.69 429.295 269.299 429.295 269.299L435.772 298.071L465.64 350.177L522.348 449.106Z" fill="#2F2E41"/>
<path d="M389.225 457.909C388.751 456.46 385.16 457.098 384.815 455.801C384.472 454.509 387.917 453.426 390.56 449.784C391.037 449.128 394.04 444.99 392.888 443.25C390.705 439.951 375.515 448.167 371.869 443.556C371.069 442.544 370.739 440.807 368.356 437.574C367.407 436.288 366.799 435.667 366.072 435.686C365.04 435.712 364.671 437.002 363.05 439.34C360.619 442.845 359.742 442.405 358.14 445.277C356.951 447.409 356.81 448.772 355.953 448.852C354.739 448.966 354.238 446.311 352.756 446.208C351.243 446.103 349.729 448.726 348.978 450.776C347.57 454.621 348.442 457.561 348.635 460.49C348.846 463.674 348.352 468.334 344.893 474.316L312.267 526.298C319.273 515.701 339.163 486.804 347.177 476.204C349.49 473.144 351.976 470.072 355.803 469.494C359.487 468.937 363.969 470.76 370.225 470.654C370.956 470.641 372.989 470.581 373.484 469.503C373.893 468.612 372.878 467.837 373.247 467C373.742 465.876 375.971 466.358 379.009 465.612C381.151 465.086 382.606 464.217 383.858 463.469C384.235 463.244 389.855 459.839 389.225 457.909Z" fill="#F2F2F2"/>
<path d="M303.77 470.046C302.922 469.86 302.199 471.807 301.463 471.602C300.73 471.398 301.192 469.394 300.168 467.046C299.983 466.623 298.819 463.955 297.632 464.018C295.383 464.138 295.033 473.964 291.718 474.423C290.99 474.524 290.043 474.184 287.768 474.421C286.863 474.516 286.383 474.635 286.182 474.997C285.898 475.511 286.424 476.065 287.104 477.535C288.123 479.739 287.654 480.043 288.601 481.658C289.305 482.857 289.933 483.319 289.725 483.763C289.431 484.391 287.983 483.871 287.505 484.569C287.017 485.281 287.867 486.781 288.657 487.741C290.138 489.542 291.832 489.962 293.326 490.712C294.949 491.527 297.094 493.114 299.031 496.538L315.131 527.55C311.951 521.053 303.507 502.953 300.617 495.962C299.783 493.944 298.992 491.837 299.813 489.792C300.602 487.823 302.79 486.149 304.543 483.048C304.748 482.686 305.305 481.67 304.919 481.117C304.6 480.659 303.926 480.934 303.622 480.511C303.213 479.943 304.093 478.988 304.603 477.282C304.963 476.079 304.956 475.114 304.951 474.284C304.949 474.034 304.899 470.293 303.77 470.046Z" fill="#F2F2F2"/>
<path d="M319.832 477.613L320.338 472.94L320.648 472.647C322.084 471.29 322.983 469.852 323.32 468.372C323.373 468.137 323.415 467.899 323.457 467.657C323.625 466.696 323.834 465.502 324.758 464.261C325.274 463.57 326.642 462.009 328.052 462.554C328.433 462.697 328.689 462.943 328.868 463.205C328.913 463.16 328.959 463.114 329.008 463.065C329.617 462.473 330.043 462.256 330.453 462.048C330.769 461.887 331.094 461.722 331.646 461.281C331.887 461.088 332.081 460.914 332.244 460.767C332.739 460.326 333.372 459.808 334.239 460.013C335.158 460.264 335.473 461.141 335.682 461.721C336.055 462.756 336.17 463.468 336.246 463.94C336.274 464.113 336.306 464.307 336.33 464.37C336.531 464.877 339.056 465.008 340.006 465.063C342.141 465.179 343.989 465.279 344.434 466.742C344.753 467.788 344.088 468.929 342.402 470.223C341.876 470.626 341.351 470.904 340.893 471.111C341.175 471.377 341.399 471.739 341.413 472.232C341.444 473.399 340.247 474.294 337.856 474.898C337.262 475.049 336.463 475.25 335.417 475.199C334.925 475.175 334.493 475.1 334.126 475.029C334.071 475.239 333.97 475.457 333.789 475.663C333.257 476.272 332.397 476.427 331.231 476.084C329.943 475.725 328.926 475.237 328.028 474.808C327.244 474.434 326.567 474.115 326 474.028C324.945 473.88 323.961 474.532 322.783 475.399L319.832 477.613Z" fill="#F2F2F2"/>
<path d="M328.253 451.001L323.606 451.697L323.243 451.471C321.566 450.426 319.947 449.922 318.431 449.971C318.189 449.979 317.949 449.999 317.703 450.02C316.732 450.101 315.524 450.202 314.09 449.623C313.29 449.298 311.432 448.372 311.602 446.87C311.644 446.465 311.817 446.154 312.025 445.915C311.97 445.883 311.914 445.85 311.854 445.815C311.127 445.376 310.809 445.019 310.503 444.675C310.268 444.411 310.025 444.138 309.459 443.716C309.211 443.531 308.993 443.388 308.811 443.268C308.258 442.901 307.597 442.42 307.575 441.529C307.585 440.577 308.353 440.05 308.861 439.7C309.768 439.077 310.427 438.785 310.865 438.591C311.025 438.521 311.205 438.441 311.26 438.402C311.699 438.079 311.185 435.603 310.997 434.67C310.568 432.575 310.196 430.762 311.498 429.961C312.429 429.388 313.701 429.741 315.381 431.044C315.904 431.45 316.306 431.888 316.622 432.278C316.808 431.938 317.102 431.629 317.575 431.491C318.696 431.165 319.865 432.095 321.055 434.255C321.353 434.791 321.75 435.513 321.966 436.538C322.067 437.02 322.104 437.457 322.129 437.83C322.345 437.83 322.582 437.872 322.828 437.995C323.552 438.355 323.92 439.147 323.883 440.363C323.863 441.699 323.649 442.807 323.462 443.785C323.299 444.638 323.162 445.373 323.221 445.944C323.346 447.002 324.226 447.789 325.364 448.708L328.253 451.001Z" fill="#F2F2F2"/>
<path d="M328.88 437.044L329.386 432.372L329.696 432.078C331.132 430.721 332.031 429.284 332.368 427.804C332.421 427.569 332.463 427.331 332.505 427.088C332.673 426.128 332.882 424.933 333.805 423.693C334.322 423.002 335.69 421.44 337.1 421.986C337.48 422.128 337.737 422.375 337.916 422.637C337.961 422.591 338.006 422.546 338.056 422.497C338.665 421.905 339.091 421.688 339.501 421.479C339.817 421.318 340.142 421.153 340.694 420.712C340.935 420.519 341.129 420.345 341.292 420.199C341.787 419.757 342.42 419.24 343.287 419.445C344.206 419.696 344.521 420.572 344.73 421.153C345.103 422.188 345.218 422.9 345.294 423.372C345.322 423.544 345.353 423.739 345.377 423.802C345.579 424.309 348.104 424.44 349.054 424.495C351.189 424.611 353.037 424.711 353.482 426.173C353.801 427.219 353.136 428.36 351.449 429.655C350.924 430.057 350.399 430.335 349.941 430.543C350.223 430.809 350.447 431.171 350.461 431.664C350.492 432.83 349.295 433.726 346.904 434.329C346.31 434.481 345.511 434.682 344.465 434.631C343.973 434.606 343.541 434.531 343.173 434.461C343.119 434.67 343.018 434.888 342.837 435.095C342.305 435.704 341.445 435.859 340.279 435.515C338.991 435.157 337.973 434.669 337.076 434.24C336.291 433.866 335.615 433.547 335.048 433.459C333.993 433.312 333.008 433.963 331.831 434.83L328.88 437.044Z" fill="#F2F2F2"/>
<path d="M313.81 526.564L312.988 525.752L311.846 525.631C311.851 525.524 311.844 525.273 311.836 524.88C311.792 522.731 311.655 516.19 312.566 506.139C313.202 499.123 314.265 492.001 315.725 484.968C317.188 477.924 318.705 472.683 319.925 468.47C320.845 465.293 321.773 462.279 322.68 459.343C325.099 451.501 327.383 444.092 328.798 435.642C329.115 433.755 329.772 429.829 328.426 425.194C327.645 422.506 326.308 419.976 324.45 417.676L326.248 416.224C328.298 418.765 329.777 421.567 330.644 424.552C332.137 429.691 331.42 433.969 331.076 436.025C329.636 444.625 327.329 452.104 324.886 460.023C323.984 462.948 323.059 465.948 322.143 469.112C320.934 473.286 319.43 478.482 317.987 485.436C316.543 492.385 315.494 499.419 314.865 506.347C313.966 516.271 314.101 522.715 314.145 524.832C314.168 525.962 314.173 526.199 313.81 526.564Z" fill="#F2F2F2"/>
<path d="M319.518 420.335C319.425 420.315 319.332 420.292 319.239 420.264C317.343 419.732 315.822 418.187 314.717 415.672C314.2 414.489 314.078 413.244 313.834 410.762C313.796 410.379 313.627 408.442 313.835 405.875C313.97 404.198 314.15 403.524 314.607 402.995C315.113 402.406 315.796 402.068 316.518 401.899C316.538 401.677 316.61 401.46 316.754 401.254C317.348 400.4 318.342 400.751 318.881 400.933C319.153 401.031 319.491 401.155 319.872 401.219C320.47 401.322 320.828 401.217 321.369 401.061C321.886 400.91 322.53 400.723 323.419 400.739C325.175 400.763 326.474 401.552 326.902 401.812C329.159 403.168 329.938 405.331 330.839 407.835C331.018 408.338 331.613 410.152 331.751 412.489C331.851 414.175 331.631 414.865 331.377 415.358C330.86 416.373 330.068 416.843 328.101 417.832C326.047 418.869 325.017 419.388 324.171 419.654C322.205 420.272 320.97 420.659 319.518 420.335Z" fill="#F2F2F2"/>
<path d="M583.04 528.789C583.04 529.253 582.664 529.629 582.2 529.629H0V527.949H582.2C582.664 527.949 583.04 528.325 583.04 528.789Z" fill="#E6E6E6"/>
<path d="M161.968 65.1856L197.755 82.3632C197.755 82.3632 235.689 194.734 235.689 200.459C235.689 206.185 246.425 209.764 239.983 216.206C233.541 222.647 251.973 228.103 242.041 233.248C232.11 238.393 170.157 266.538 163.268 264C144.268 257 164.073 231.278 164.073 231.278C164.073 231.278 149.8 219.784 151.948 214.058C154.095 208.333 139.064 98.8251 139.064 98.8251L161.968 65.1856Z" fill="#E6E6E6"/>
<path d="M192.593 43.7256L196.645 51.8292C196.645 51.8292 200.696 37.2428 207.179 34.0014C213.662 30.76 214.472 25.8979 214.472 25.8979C214.472 25.8979 222.576 36.4325 228.248 34.0014C233.921 31.5704 236.352 29.9497 229.869 20.2255C223.386 10.5013 225.007 15.3634 225.007 15.3634C225.007 15.3634 219.335 7.25985 220.145 9.6909C220.955 12.1219 215.283 3.20809 215.283 5.63914C215.283 8.07019 211.231 0.777025 211.231 3.20809C211.231 5.63914 194.214 -2.46437 196.645 0.777035C199.076 4.01845 182.058 -5.70577 173.955 7.25985C165.851 20.2255 154.615 17.8277 158.612 25.9146C162.61 34.0014 160.989 55.8809 160.989 55.8809H172.165C172.165 55.8809 183.679 34.0014 192.593 43.7256Z" fill="#2F2E41"/>
<path d="M431.084 112.424L431.74 112.239L464.008 103.119L489.775 138.19L472.597 211.195L479.039 240.54C479.039 240.54 426.79 226.942 406.034 238.393C406.034 238.393 404.602 231.867 406.034 228.689C407.465 225.51 409.612 212.283 407.465 206.371C405.318 200.459 411.76 172.546 411.76 172.546C411.76 172.546 409.612 153.937 418.917 144.632C428.221 135.327 431.084 112.424 431.084 112.424Z" fill="#3C88BF"/>
<path d="M401.778 244.249L288.391 187.899C287.827 187.619 287.334 187.233 286.926 186.752L269.233 165.901C268.06 164.518 267.806 162.566 268.587 160.929L301.761 91.3281C302.342 90.1084 303.424 89.2078 304.729 88.8569C306.036 88.5067 307.423 88.744 308.537 89.5084L388.502 144.36C390.144 145.486 390.877 147.528 390.327 149.441L374.092 205.939C373.648 207.484 374.214 209.171 375.5 210.135L407.617 234.223C409.347 235.52 409.945 237.886 409.039 239.849L408.023 242.05C407.496 243.193 406.552 244.052 405.366 244.47C404.863 244.647 404.344 244.735 403.828 244.735C403.126 244.734 402.428 244.572 401.778 244.249Z" fill="#235970"/>
<path d="M400.874 230.535L369.31 204.274C369.038 204.045 368.823 203.766 368.673 203.458C368.387 202.879 368.329 202.184 368.544 201.547L386.53 148.919C386.996 147.559 386.495 146.042 385.307 145.226L310.369 93.9223C309.603 93.3926 308.644 93.228 307.742 93.4642C306.833 93.7004 306.082 94.3159 305.667 95.1533L274.074 159.305C273.595 160.271 273.63 161.38 274.16 162.304C274.224 162.432 274.303 162.554 274.396 162.669L290.286 183.64C290.593 184.04 290.994 184.37 291.445 184.592L397.417 235.903C397.861 236.117 398.34 236.225 398.82 236.225C399.65 236.225 400.48 235.903 401.096 235.28C401.167 235.201 401.239 235.13 401.31 235.044C401.811 234.435 402.069 233.655 402.033 232.861C401.99 231.959 401.568 231.114 400.874 230.535Z" fill="#F2F2F2"/>
<path d="M286.505 155.368C286.767 155.368 287.019 155.224 287.145 154.974L312.833 103.941C313.01 103.588 312.868 103.158 312.515 102.98C312.161 102.801 311.732 102.944 311.554 103.297L285.867 154.331C285.689 154.684 285.831 155.114 286.184 155.292C286.287 155.344 286.397 155.368 286.505 155.368Z" fill="#235970"/>
<path d="M300.105 163.957C300.367 163.957 300.619 163.813 300.745 163.563L326.432 112.53C326.61 112.177 326.468 111.746 326.115 111.569C325.761 111.39 325.331 111.533 325.154 111.886L299.466 162.919C299.288 163.273 299.431 163.703 299.784 163.88C299.887 163.932 299.997 163.957 300.105 163.957Z" fill="#235970"/>
<path d="M311.556 171.114C311.818 171.114 312.07 170.97 312.196 170.72L337.883 119.687C338.061 119.334 337.919 118.904 337.566 118.726C337.212 118.548 336.783 118.69 336.605 119.043L310.917 170.077C310.74 170.43 310.882 170.86 311.235 171.038C311.338 171.09 311.448 171.114 311.556 171.114Z" fill="#235970"/>
<path d="M271.014 164.201C279.896 161.577 288.449 164.033 290.118 169.686C291.787 175.338 285.94 182.046 277.055 184.669C273.52 185.766 269.774 186 266.13 185.353L228.359 195.995L223.742 178.163L261.469 169.565C264.177 167.04 267.45 165.201 271.014 164.201Z" fill="#FFB6B6"/>
<path d="M204.206 101.006L198.285 171.83L251.314 172.4L261.606 188.248C261.606 188.248 197.332 225.464 178.032 206.447C158.733 187.431 150.145 107.409 167.304 93.7121C184.463 80.0148 204.206 101.006 204.206 101.006Z" fill="#E6E6E6"/>
<path d="M350.938 237.958C341.703 237.262 334.576 231.933 335.02 226.056C335.463 220.179 343.308 215.98 352.546 216.677C356.241 216.905 359.826 218.014 363.004 219.912L402.095 223.353L400.089 241.663L361.765 236.327C358.338 237.727 354.625 238.287 350.938 237.958Z" fill="#A0616A"/>
<path d="M465.261 151.945L458.874 231.73C458.874 231.73 456.862 248.924 430.084 247.846C403.306 246.768 367.738 238.316 367.738 238.316L369.023 219.696L398.955 221.322C398.955 221.322 412.665 217.206 415.545 219.33C418.425 221.455 417.301 224.184 419.85 220.728C422.4 217.272 420.92 215.291 423.463 218.057C426.007 220.823 426.762 225.827 427.857 219.52C428.953 213.213 431.682 214.336 431.682 214.336L430.08 156.229C430.08 156.229 436.587 128.121 451.685 136.591C466.782 145.062 465.261 151.945 465.261 151.945Z" fill="#3C88BF"/>
</g>
<defs>
<clipPath id="clip0_12_48">
<rect width="583.04" height="529.629" fill="white"/>
</clipPath>
</defs>
</svg>
